<!--?xml version="1.0" standalone="no"?-->
              <svg id="sw-js-blob-svg" viewBox="0 0 100 100" xmlns="http://www.w3.org/2000/svg" version="1.1">
                    <defs> 
                        <linearGradient id="sw-gradient" x1="0" x2="1" y1="1" y2="0">
                            <stop id="stop1" stop-color="rgba(248, 117, 55, 1)" offset="0%"></stop>
                            <stop id="stop2" stop-color="rgba(251, 168, 31, 1)" offset="100%"></stop>
                        </linearGradient>
                    </defs>
                <path fill="url(#sw-gradient)" d="M11.9,-21.2C15,-18.8,16.7,-14.7,19.4,-10.9C22.1,-7.1,25.6,-3.6,27.2,0.9C28.7,5.3,28.2,10.7,25.1,13.7C21.9,16.7,16.2,17.4,11.6,21.2C7,25,3.5,32,-0.9,33.6C-5.3,35.1,-10.6,31.3,-17.4,28.7C-24.1,26.1,-32.4,24.8,-33.2,20.2C-34.1,15.7,-27.5,7.8,-23.9,2C-20.4,-3.7,-19.9,-7.5,-20.1,-13.9C-20.4,-20.3,-21.3,-29.5,-18.1,-31.8C-14.8,-34.1,-7.4,-29.6,-1.5,-27C4.4,-24.4,8.8,-23.6,11.9,-21.2Z" width="100%" height="100%" transform="translate(50 50)" stroke-width="0" style="transition: all 0.3s ease 0s;"></path>
              </svg>