<!--?xml version="1.0" standalone="no"?-->
              <svg id="sw-js-blob-svg" viewBox="0 0 100 100" xmlns="http://www.w3.org/2000/svg" version="1.1">
                    <defs> 
                        <linearGradient id="sw-gradient" x1="0" x2="1" y1="1" y2="0">
                            <stop id="stop1" stop-color="rgba(248, 117, 55, 1)" offset="0%"></stop>
                            <stop id="stop2" stop-color="rgba(251, 168, 31, 1)" offset="100%"></stop>
                        </linearGradient>
                    </defs>
                <path fill="url(#sw-gradient)" d="M16.5,-27.8C21.9,-25.5,27.2,-22.1,30.1,-17.3C32.9,-12.5,33.4,-6.2,31.8,-0.9C30.2,4.4,26.5,8.8,24.3,14.8C22.1,20.8,21.4,28.4,17.6,34.1C13.9,39.8,6.9,43.7,-0.6,44.6C-8,45.6,-16.1,43.7,-20.5,38.4C-25,33,-25.8,24.2,-29,17.2C-32.2,10.3,-37.7,5.1,-38.8,-0.6C-39.9,-6.4,-36.6,-12.8,-33.1,-19.2C-29.6,-25.6,-25.9,-32,-20.3,-34.2C-14.8,-36.4,-7.4,-34.4,-0.9,-32.8C5.6,-31.3,11.1,-30.1,16.5,-27.8Z" width="100%" height="100%" transform="translate(50 50)" stroke-width="0" style="transition: all 0.3s ease 0s;"></path>
              </svg>