<?xml version="1.0" standalone="no"?>
<!DOCTYPE svg PUBLIC "-//W3C//DTD SVG 20010904//EN"
 "http://www.w3.org/TR/2001/REC-SVG-20010904/DTD/svg10.dtd">
<svg version="1.0" xmlns="http://www.w3.org/2000/svg"
 width="1200.000000pt" height="1200.000000pt" viewBox="0 0 1200.000000 1200.000000"
 preserveAspectRatio="xMidYMid meet">
<metadata>
Created by potrace 1.14, written by Peter Selinger 2001-2017
</metadata>
<g transform="translate(0.000000,1200.000000) scale(0.100000,-0.100000)"
fill="#000000" stroke="none">
<path d="M6200 6515 l0 -1915 1915 0 1915 0 0 1915 0 1915 -1915 0 -1915 0 0
-1915z m1606 1 c200 -500 364 -911 364 -913 0 -2 -50 -3 -112 -3 -100 0 -114
2 -134 21 -13 12 -57 112 -110 250 l-87 229 -415 -2 -415 -3 -89 -230 c-53
-139 -97 -237 -109 -247 -17 -15 -41 -18 -134 -18 l-112 0 366 915 366 915
129 -2 128 -3 364 -909z m1422 886 c104 -32 187 -76 247 -133 147 -139 179
-411 70 -604 -63 -112 -192 -211 -325 -251 l-52 -16 30 -31 c24 -26 470 -621
550 -734 l23 -33 -130 0 -131 0 -34 33 c-19 17 -136 172 -261 342 -125 171
-237 322 -250 337 -34 38 -85 50 -200 46 l-100 -3 -3 -377 -2 -378 -120 0
-120 0 0 916 0 916 368 -4 c343 -4 372 -6 440 -26z"/>
<path d="M7292 7126 c-6 -25 -71 -197 -143 -383 -72 -186 -142 -366 -155 -400
l-23 -63 339 0 c187 0 340 3 340 8 0 4 -22 63 -49 132 -136 346 -245 631 -263
688 -11 34 -23 62 -27 62 -4 0 -12 -20 -19 -44z"/>
<path d="M8662 6888 l3 -353 160 -3 c237 -4 354 27 444 117 99 99 128 283 66
415 -39 81 -132 145 -245 166 -29 5 -138 10 -241 10 l-189 0 2 -352z"/>
<path d="M4047 7538 c-8 -18 -199 -472 -425 -1008 -226 -536 -420 -996 -431
-1022 l-20 -48 87 0 87 0 440 1046 c242 575 442 1050 443 1055 2 5 -35 9 -82
9 l-86 0 -13 -32z"/>
<path d="M2280 7037 l-525 -522 533 -530 532 -530 0 125 0 125 -405 405 -405
405 405 405 405 405 0 117 c0 65 -3 118 -7 118 -5 0 -244 -235 -533 -523z"/>
<path d="M4587 7554 c-2 -5 -5 -58 -6 -118 l-2 -110 406 -406 405 -405 -405
-405 -406 -405 2 -123 2 -124 531 529 c291 290 530 528 531 528 0 0 -237 236
-526 524 -290 288 -529 519 -532 515z"/>
<path d="M1858 3834 l-106 -265 36 3 c36 3 38 5 66 76 l28 72 118 0 118 0 22
-62 c13 -35 28 -69 33 -75 10 -14 67 -18 67 -6 0 4 -46 123 -102 265 l-101
258 -37 0 -36 0 -106 -266z m195 54 l45 -118 -99 0 -99 0 21 53 c12 28 33 84
47 124 15 40 29 69 33 65 3 -4 27 -60 52 -124z"/>
<path d="M2560 3836 l0 -266 111 0 c133 0 177 11 221 57 29 30 33 41 33 88 0
60 -16 84 -75 116 -19 10 -28 18 -19 19 10 0 31 16 48 35 53 60 40 145 -28
188 -31 19 -53 22 -163 26 l-128 3 0 -266z m255 179 c27 -26 33 -72 14 -107
-16 -29 -70 -48 -139 -48 l-60 0 0 90 0 90 80 0 c73 0 83 -3 105 -25z m21
-238 c33 -39 31 -81 -5 -118 -28 -28 -34 -29 -115 -29 l-86 0 0 91 0 91 91 -4
c85 -3 92 -5 115 -31z"/>
<path d="M3280 3835 l0 -267 138 4 c152 4 187 15 249 80 47 48 63 96 63 183 0
87 -16 135 -63 183 -62 65 -97 76 -249 80 l-138 4 0 -267z m267 194 c123 -46
155 -262 52 -356 -37 -34 -73 -43 -165 -43 l-84 0 0 205 0 205 84 0 c47 0 97
-5 113 -11z"/>
<path d="M4070 3921 c0 -234 16 -283 112 -332 42 -21 139 -26 185 -8 40 15 82
57 104 104 16 34 19 66 19 228 l0 187 -35 0 -35 0 0 -177 c0 -202 -12 -248
-69 -277 -40 -21 -106 -20 -142 1 -58 34 -69 78 -69 276 l0 177 -35 0 -35 0 0
-179z"/>
<path d="M4860 3835 l0 -265 150 0 150 0 0 30 0 30 -115 0 -115 0 0 235 0 235
-35 0 -35 0 0 -265z"/>
<path d="M5910 3835 l0 -265 35 0 35 0 0 110 0 110 40 0 c40 0 42 -2 121 -110
80 -108 82 -110 121 -110 l40 0 -38 53 c-21 28 -59 80 -86 114 l-48 63 40 20
c55 28 80 71 80 137 0 44 -5 58 -30 86 -38 44 -89 57 -214 57 l-96 0 0 -265z
m245 184 c22 -22 33 -69 23 -105 -12 -45 -50 -66 -130 -72 l-68 -5 0 103 0
102 80 -4 c54 -2 84 -8 95 -19z"/>
<path d="M6620 3835 l0 -265 160 0 160 0 0 30 0 30 -125 0 -125 0 0 90 0 90
100 0 100 0 0 30 0 30 -100 0 -100 0 0 85 0 85 125 0 125 0 0 30 0 30 -160 0
-160 0 0 -265z"/>
<path d="M7290 3835 l0 -265 35 0 35 0 0 120 0 120 140 0 140 0 0 -120 0 -120
35 0 35 0 0 265 0 265 -35 0 -35 0 0 -120 0 -120 -140 0 -140 0 0 120 0 120
-35 0 -35 0 0 -265z"/>
<path d="M8090 3835 l0 -265 30 0 30 0 2 206 3 206 91 -163 c123 -221 114
-221 231 -7 l88 163 3 -202 2 -203 35 0 35 0 0 265 0 265 -34 0 c-18 0 -38 -6
-44 -12 -5 -7 -53 -91 -105 -186 l-95 -173 -14 28 c-8 15 -54 99 -102 186 -87
155 -88 157 -122 157 l-34 0 0 -265z"/>
<path d="M9151 4078 c-14 -35 -156 -396 -180 -456 l-21 -53 37 3 c36 3 38 5
64 73 l26 70 119 3 119 3 28 -76 c28 -74 29 -75 63 -75 43 0 51 -31 -74 280
l-98 245 -37 3 c-31 3 -39 -1 -46 -20z m97 -184 c23 -61 42 -114 42 -117 0 -4
-43 -7 -96 -7 -53 0 -94 4 -92 8 2 5 23 61 48 125 24 64 47 113 50 109 4 -4
25 -57 48 -118z"/>
<path d="M9758 3835 l-3 -265 32 0 33 0 2 200 3 200 153 -200 c125 -163 158
-200 178 -200 l24 0 0 265 0 265 -30 0 -30 0 -2 -201 -3 -202 -154 202 c-122
160 -158 201 -177 201 l-23 0 -3 -265z"/>
</g>
</svg>
